<?xml version="1.0" encoding="utf-8"?>
<svg xmlns="http://www.w3.org/2000/svg" viewBox="21.3509 26.9066 444.5829 441.1541" width="444.583px" height="441.154px">
  <g>
    <path style="stroke: rgb(0, 0, 0); fill: rgb(255, 255, 255);" d="M 196.953 394.915 C 201.54 400.38 233.398 437.544 318.459 439.295 C 403.519 441.045 417.815 321.349 417.452 266.456 C 418.926 196.01 385.151 162.458 330.787 156.379 C 295.239 151.913 239.779 180.447 233.255 181.732 C 226.732 183.016 221.739 188.475 237.38 210.081 C 250.832 232.134 252.896 247.317 270.594 221.815 C 297.704 194.621 380.272 195.139 396.236 237.336 C 412.2 279.533 388.832 311.481 352.574 323.196 C 316.315 334.912 272.584 310.743 266.393 310.951 C 260.202 311.159 251.355 336.147 240.738 350.232 C 230.121 364.318 198.855 389.606 198.855 389.606 C 198.44 389.379 193.651 393.096 196.953 394.915 Z M 81.22 84.967 C 81.22 84.967 94.267 85.383 98.16 88.915 C 102.052 92.446 102.1 109.613 113.268 121.966 C 124.437 134.32 140.827 145.473 156.725 148.133 C 172.622 150.793 136.597 34.02 229.911 27.242 C 323.224 20.464 317.006 118.587 309.887 124.122 C 302.768 129.657 404.413 119.125 443.075 175.43 C 481.738 231.735 460.253 330.849 457.581 352.046 C 454.909 373.243 405.433 466.541 357.044 465.184 C 343.148 464.794 269.097 482.569 188.066 434.219 C 172.519 423.17 160.786 415.571 150.719 414.516 C 139.247 413.587 106.78 434.583 49.392 391.33 C -2.686 342.313 33.734 310.606 33.734 310.606 C 33.734 310.606 85.62 274.661 136.425 335.925 C 167.93 379.144 166.405 367.874 212.21 306.49 C 238.477 273.546 217.137 274.212 193.024 231.685 C 167.867 191.251 173.511 182.949 173.511 182.949 C 173.511 182.949 85.423 166.215 62.932 123.743 C 41.502 80.744 80.205 84.399 81.22 84.967 Z M 286.894 273.746 C 287.337 285.336 313.622 289.747 320.876 292.149 C 328.131 294.55 347.867 297.294 348.332 267.832 C 348.798 238.369 328.975 235.681 328.975 235.681 C 317.993 233.916 286.452 262.156 286.894 273.746 Z M 215.078 148.368 C 228.777 153.681 262.247 125.158 262.384 101.136 C 262.521 77.113 247.042 58.641 233.475 57.154 C 219.907 55.666 212.155 108.574 212.155 108.574 C 210.847 118.622 208.079 144.315 215.078 148.368 Z M 120.503 386.311 C 125.039 385.121 76.241 338.015 73.432 339.885 C 70.623 341.755 72.201 355.856 84.428 368.923 C 96.655 381.99 111.361 387.401 111.361 387.401 C 115.615 388.501 115.967 387.501 120.503 386.311 Z"/>
    <path style="stroke: rgb(0, 0, 0); fill: rgb(149, 145, 255);" d="M 399.356 170.238 C 403.875 177.63 431.637 202.383 431.198 259.405 C 430.759 316.426 427.913 364.488 397.936 406.718 C 367.959 448.948 361.405 442.433 364.155 446.844 C 366.905 451.254 446.105 414.118 453.864 289.722 C 461.623 165.326 381.353 147.272 381.072 152.629 C 380.791 157.986 394.763 163.13 399.356 170.238 Z"/>
    <path style="stroke: rgb(0, 0, 0); fill: rgb(173, 159, 255);" d="M 82.473 96.375 C 82.473 96.375 90.028 94.783 92.701 103.675 C 95.373 112.567 93.18 125.592 111.845 139.983 C 130.51 154.375 131.442 150.555 131.091 153.661 C 130.74 156.767 93.019 141.449 81.911 127.924 C 70.803 114.4 67.625 103.873 70.947 99.833 C 74.269 95.792 82.147 96.415 82.473 96.375 Z"/>
    <path style="stroke: rgb(0, 0, 0); fill: rgba(219, 101, 255, 0.55);" d="M 264.301 48.853 C 264.301 48.853 301.854 71.642 298.924 97.728 C 295.995 123.815 290.018 132.055 297.234 138.427 C 304.45 144.799 277.28 149.12 248.833 160.739 C 220.386 172.358 191.092 165.798 222.638 213.14 C 254.185 260.483 248.899 268.932 286.322 230.955 C 332.096 202.245 289.508 242.852 272.979 262.713 C 258.864 281.964 296.606 294.055 294.707 298.662 C 292.808 303.27 268.933 290.93 260.697 292.905 C 252.462 294.88 224.175 355.608 180.419 383.407 C 158.001 399.79 229.635 428.759 226.837 436.859 C 224.039 444.959 152.356 383.688 143.244 399.318 C 128.884 410.286 155.525 378.249 100.343 342.677 C 53.699 303.142 44.183 342.892 66.884 372.379 C 108.986 412.922 65.776 392.445 46.088 370.54 C 34.695 359.017 30.37 342.677 37.269 327.928 C 44.169 313.179 65.563 314.192 84.685 320.539 C 103.807 326.886 137.654 359.193 144.648 367.154 C 151.642 375.116 163.054 393.384 186.053 365.445 C 209.052 337.506 242.035 287.673 241.986 281.116 C 245.319 263.963 181.693 197.83 182.544 171.953 C 183.725 163.76 169.975 173.479 169.37 164.309 C 168.766 155.14 181.688 169.165 176.669 136.141 C 171.562 112.312 183.822 62.976 200.635 51.6 C 225.059 37.133 229.478 37.327 203.099 76.511 C 187.973 114.09 199.271 178.267 224.244 162.328 C 249.217 146.389 283.792 129.98 278.971 91.499 C 274.151 53.019 253.806 52.599 250.518 49.315 C 247.23 46.03 253.327 41.353 264.301 48.853 Z"/>
  </g>
</svg>